<?xml version="1.0" standalone="no"?>
<!DOCTYPE svg PUBLIC "-//W3C//DTD SVG 20010904//EN"
 "http://www.w3.org/TR/2001/REC-SVG-20010904/DTD/svg10.dtd">
<svg version="1.0" xmlns="http://www.w3.org/2000/svg"
 width="500.000000pt" height="500.000000pt" viewBox="0 0 500.000000 500.000000"
 preserveAspectRatio="xMidYMid meet">
<metadata>
Created by potrace 1.14, written by Peter Selinger 2001-2017
</metadata>
<g transform="translate(0.000000,500.000000) scale(0.100000,-0.100000)"
fill="#000000" stroke="none">
<path d="M2131 4389 c-83 -11 -193 -71 -271 -148 -70 -69 -99 -118 -165 -276
-79 -192 -152 -308 -216 -340 -50 -26 -102 -19 -149 20 -46 39 -82 44 -152 23
-50 -15 -130 -86 -166 -147 -24 -41 -27 -56 -27 -136 0 -68 6 -108 24 -163 55
-167 162 -334 312 -484 53 -54 94 -100 91 -103 -3 -3 -14 -5 -24 -5 -38 0
-132 -41 -184 -80 -29 -22 -61 -40 -71 -40 -29 0 -81 -37 -98 -69 -34 -67 -5
-149 63 -178 30 -13 45 -14 80 -4 23 6 98 11 167 11 l125 0 0 -24 c0 -29 41
-81 79 -100 15 -8 65 -18 111 -22 l84 -7 -27 32 c-31 37 -42 70 -32 100 6 20
13 21 150 21 139 0 145 -1 160 -22 8 -13 42 -45 75 -72 33 -27 71 -66 84 -86
40 -60 69 -68 246 -65 85 1 161 3 167 4 7 0 67 55 133 121 l120 120 445 0
c259 0 445 4 445 9 0 20 -146 143 -205 172 -67 33 -192 69 -241 69 -17 0 -33
3 -37 6 -3 3 31 33 76 67 281 207 489 521 504 763 7 95 -5 139 -54 206 -48 66
-118 109 -190 115 -56 5 -60 4 -102 -31 -53 -44 -109 -49 -162 -13 -49 32
-121 145 -175 272 -82 196 -114 253 -170 314 -94 102 -219 169 -323 172 -62 3
-77 -9 -85 -68 -10 -75 -37 -150 -69 -188 -26 -32 -33 -35 -82 -35 -47 0 -56
4 -79 30 -26 31 -58 120 -71 197 -10 62 -30 73 -114 62z m201 -657 c4 -15 -2
-19 -28 -20 -32 -3 -46 13 -27 31 14 14 51 7 55 -11z m187 5 c15 -18 4 -27
-33 -27 -17 -1 -41 -6 -54 -13 -23 -13 -23 -13 12 -29 18 -9 43 -14 54 -11 30
8 64 -14 60 -40 -5 -33 -58 -31 -75 2 -14 29 -71 62 -94 55 -9 -2 -16 2 -16
11 0 10 6 14 14 11 18 -7 69 19 76 39 8 19 41 20 56 2z m-176 -79 c-13 -6 -23
-17 -23 -24 0 -7 -12 -22 -26 -33 -20 -16 -31 -18 -45 -10 -42 22 -8 71 47 67
18 -1 36 1 40 5 4 4 12 7 18 6 6 0 1 -5 -11 -11z m410 -399 c39 -13 117 -73
117 -91 0 -13 -132 -6 -137 8 -2 5 -13 25 -26 44 l-22 35 -3 -37 c-3 -36 -5
-38 -36 -38 -18 0 -54 -6 -79 -14 -52 -15 -67 -10 -171 60 l-51 34 45 1 c25 0
65 4 90 9 58 11 224 4 273 -11z m-622 -14 c47 -26 64 -31 54 -15 -9 15 8 12
31 -5 31 -23 51 -19 28 7 -22 24 32 -10 160 -104 68 -50 82 -65 100 -110 12
-29 24 -52 28 -51 4 1 21 -11 39 -28 17 -16 35 -29 40 -29 5 0 3 -13 -6 -30
-9 -16 -13 -30 -10 -30 11 0 84 40 89 49 3 5 22 12 41 15 56 11 100 57 125
131 24 71 46 89 57 47 13 -44 9 -254 -5 -277 -11 -17 -12 -15 -6 17 7 43 -1
88 -16 88 -6 0 -10 -17 -11 -37 0 -21 -4 -47 -9 -58 -7 -17 -9 -15 -9 12 -1
33 -21 58 -21 26 0 -11 -7 -28 -15 -39 -14 -18 -14 -18 -15 9 0 31 -16 36 -25
8 -4 -15 -17 -21 -48 -23 -38 -3 -45 -8 -74 -52 -18 -26 -33 -53 -33 -58 0 -6
23 -8 52 -6 52 3 53 3 70 -34 23 -48 43 -50 34 -5 -3 20 -2 26 3 17 5 -8 12
-34 16 -57 4 -24 11 -43 15 -43 5 0 11 19 13 43 2 27 4 17 5 -31 l2 -72 -57 2
c-55 3 -58 4 -55 28 2 24 2 25 -10 4 -7 -12 -18 -19 -24 -17 -6 2 -18 -15 -27
-37 -18 -48 -42 -52 -51 -10 -7 39 10 68 44 73 21 3 22 5 8 11 -10 5 -30 2
-49 -8 -23 -12 -36 -13 -51 -5 -15 8 -24 7 -40 -8 -19 -17 -20 -17 -33 1 -14
18 -24 17 -57 -6 -14 -10 -20 -9 -36 5 -24 22 -38 22 -51 0 -9 -17 -11 -16
-30 1 -18 17 -24 18 -45 6 -20 -10 -28 -10 -47 4 -26 18 -59 21 -59 6 0 -5 7
-10 15 -10 9 0 29 -10 45 -22 24 -17 32 -19 45 -8 26 22 44 -3 35 -50 -4 -23
-9 -43 -12 -45 -9 -9 -47 26 -51 48 l-4 22 -8 -22 c-11 -34 -42 -29 -50 7 -7
32 -25 41 -25 13 -1 -11 -10 -3 -25 22 -21 33 -25 36 -25 18 0 -41 -64 -22
-72 22 -2 11 -10 19 -16 17 -8 -1 -12 13 -12 43 0 50 -16 61 -26 18 -9 -44
-12 -50 -13 -25 -2 62 52 96 146 90 34 -2 63 -2 63 1 0 2 -12 24 -26 48 -31
53 -60 66 -117 54 -29 -7 -45 -6 -56 2 -18 15 -17 16 -35 -8 -14 -17 -17 -18
-26 -5 -5 8 -10 31 -11 50 l-2 35 -6 -35 -7 -35 -7 40 c-4 22 -3 88 2 147 11
130 36 182 107 224 l46 27 44 -21 c35 -17 44 -19 44 -7 0 7 -10 21 -22 29 -34
24 -15 19 33 -9z m913 -480 c41 -87 3 -184 -67 -170 -18 4 -44 14 -59 21 -32
16 -48 37 -21 27 14 -5 13 0 -7 22 -14 16 -19 25 -11 20 11 -6 13 -4 7 11 -6
16 -4 16 17 -4 30 -29 71 -29 91 0 20 28 20 45 1 82 -8 15 -15 38 -15 49 0 20
1 20 24 -2 14 -13 32 -38 40 -56z m-1248 43 c-17 -24 -21 -42 -8 -34 4 2 6
-13 4 -35 -5 -47 10 -69 47 -69 35 0 65 22 81 59 14 34 40 49 40 23 -1 -61
-72 -143 -137 -157 -28 -6 -37 -2 -64 25 -29 28 -31 35 -27 80 5 50 47 130 69
130 5 0 3 -10 -5 -22z m171 -270 c-3 -7 -5 -2 -5 12 0 14 2 19 5 13 2 -7 2
-19 0 -25z m597 -13 c25 -19 15 -80 -15 -88 -16 -4 -21 1 -26 24 -7 36 -29 33
-25 -3 2 -19 -3 -27 -20 -32 -45 -12 -58 -7 -58 19 0 14 -4 25 -9 25 -12 0
-22 -30 -14 -42 4 -8 -6 -9 -32 -5 -20 3 -39 8 -42 11 -9 8 18 87 32 92 7 3
23 0 35 -6 18 -9 28 -9 46 1 20 10 29 10 50 -2 24 -12 28 -12 38 4 13 20 16
21 40 2z m-430 -64 c3 -5 -4 -11 -16 -14 -12 -4 -19 -10 -15 -14 4 -4 -16 -15
-45 -24 -52 -17 -45 -17 317 -17 321 0 363 2 320 13 -27 7 -42 14 -32 14 10 1
17 7 16 14 -5 40 -12 39 319 34 338 -5 363 -8 474 -60 29 -14 67 -37 83 -51
l30 -25 -922 -1 c-508 0 -923 3 -923 8 0 4 20 29 45 57 25 27 45 56 45 62 0
10 36 13 149 13 83 0 152 -4 155 -9z m-958 -28 c-3 -8 -6 -40 -6 -71 -1 -55
-1 -56 -16 -32 -14 23 -14 23 -9 3 4 -14 2 -23 -4 -23 -6 0 -12 15 -12 33 l-2
32 -6 -35 -7 -35 -14 28 c-7 15 -17 27 -23 27 -13 0 1 51 20 72 26 29 90 30
79 1z m1074 -178 c0 -30 -15 -33 -30 -6 -14 27 -13 31 10 31 15 0 20 -7 20
-25z m144 3 l7 -23 11 23 c9 18 19 22 60 22 59 0 66 -23 13 -46 -70 -29 -205
-12 -205 27 0 16 8 19 54 19 47 0 54 -3 60 -22z m186 3 c-13 -26 -27 -34 -35
-21 -11 18 3 40 25 40 17 0 19 -3 10 -19z m-432 -51 c7 0 10 5 7 10 -3 6 -1
10 5 10 7 0 9 7 6 16 -3 8 15 -5 40 -30 49 -49 61 -55 66 -31 2 12 10 11 47
-5 54 -25 104 -25 159 0 23 10 42 15 42 10 0 -22 29 -8 73 35 44 41 51 45 99
45 l51 0 -49 -42 c-62 -55 -84 -77 -110 -113 l-21 -30 -119 -2 c-66 -2 -139
-4 -163 -5 -41 -2 -46 0 -85 47 -22 28 -63 72 -91 99 -42 41 -44 44 -10 17 22
-17 46 -31 53 -31z"/>
<path d="M2055 3176 c-41 -18 -62 -43 -47 -58 7 -7 12 -26 12 -44 0 -25 -6
-34 -31 -46 l-30 -15 32 -27 c43 -37 120 -73 143 -68 11 2 16 0 12 -7 -8 -13
69 -34 99 -27 36 9 82 69 99 131 9 30 14 60 10 66 -3 6 -22 8 -45 4 -30 -5
-47 -2 -73 14 -19 12 -36 28 -39 36 -15 38 -96 62 -142 41z m149 -118 c14 -23
-3 -52 -33 -56 -42 -6 -67 38 -39 66 17 17 58 11 72 -10z m16 -128 c-8 -5 -22
-9 -30 -9 -10 0 -8 3 5 9 27 12 43 12 25 0z m36 -25 c-11 -8 -27 -15 -35 -15
-9 1 -2 7 14 15 39 18 44 18 21 0z"/>
<path d="M2361 2904 c-58 -88 -75 -185 -36 -201 15 -5 54 32 55 54 0 16 33 9
38 -8 6 -18 33 -49 43 -49 5 0 16 11 25 25 15 22 14 28 -5 80 -21 56 -63 129
-80 139 -5 3 -23 -15 -40 -40z"/>
<path d="M1910 2821 c0 -5 5 -13 10 -16 6 -3 10 -2 10 4 0 5 -4 13 -10 16 -5
3 -10 2 -10 -4z"/>
<path d="M2368 1233 c-39 -3 -48 -8 -48 -23 0 -17 4 -18 30 -9 16 6 34 9 39 7
5 -1 -10 -46 -35 -98 -24 -52 -44 -101 -44 -107 0 -9 21 -13 70 -13 62 0 70 2
70 19 0 16 -6 18 -46 13 l-45 -5 14 34 c8 19 29 65 46 102 31 66 33 89 8 85
-7 -1 -33 -3 -59 -5z"/>
<path d="M2535 1115 l0 -125 68 0 c37 0 67 4 67 9 0 5 3 17 7 26 5 15 3 16
-15 6 -11 -6 -35 -11 -52 -11 l-31 0 3 58 3 57 39 0 c23 0 41 5 44 13 2 7 0
12 -5 11 -4 -1 -23 -1 -40 0 -28 1 -33 5 -33 26 0 20 5 25 24 25 14 0 28 -5
31 -11 5 -6 12 -4 20 8 12 16 10 19 -28 25 -23 3 -55 7 -72 7 l-30 1 0 -125z"/>
<path d="M2138 1223 c-44 -4 -48 -6 -48 -30 0 -19 3 -23 13 -16 21 17 57 22
57 9 0 -7 -18 -56 -39 -109 -22 -53 -36 -99 -33 -101 4 -2 37 -2 75 1 63 5 67
7 67 31 0 18 -3 22 -12 14 -15 -11 -78 -21 -78 -12 0 4 18 51 40 105 38 94 42
117 17 113 -7 -1 -33 -3 -59 -5z"/>
<path d="M2764 1137 c0 -51 -3 -107 -7 -124 -6 -31 -5 -33 21 -33 26 0 28 3
25 33 -2 17 0 52 4 77 l9 45 22 -46 c12 -25 22 -62 22 -82 0 -34 2 -37 30 -37
17 0 30 1 30 3 0 12 -34 104 -41 112 -14 14 -11 22 11 28 11 3 25 17 32 31 18
41 -19 72 -97 79 l-60 6 -1 -92z m97 53 c22 -12 25 -45 5 -53 -18 -7 -42 12
-51 41 -7 25 12 30 46 12z"/>
<path d="M1952 1203 c-24 -3 -31 -8 -24 -16 12 -15 35 -203 27 -217 -4 -6 8
-10 31 -10 29 0 34 3 26 13 -13 15 -36 191 -29 218 3 11 4 18 4 17 -1 0 -17
-3 -35 -5z"/>
<path d="M3016 1107 c-4 -54 -11 -109 -16 -123 -9 -22 -7 -24 19 -24 l28 0 7
95 c3 52 11 106 16 119 8 21 6 24 -19 28 l-28 4 -7 -99z"/>
<path d="M1720 1171 c-19 -4 -34 -11 -33 -17 24 -134 33 -202 29 -217 -4 -15
-1 -18 17 -13 12 3 28 6 36 6 9 0 10 4 3 13 -5 6 -14 37 -19 67 l-9 55 36 -3
c44 -5 70 17 70 58 0 51 -42 67 -130 51z m81 -37 c14 -16 4 -44 -19 -52 -14
-4 -52 34 -52 53 0 20 54 20 71 -1z"/>
<path d="M3210 1163 c0 -10 -20 -62 -44 -115 -35 -78 -41 -98 -29 -102 26 -10
33 -6 33 18 0 32 10 37 50 30 28 -6 31 -10 28 -35 -3 -21 0 -29 16 -33 39 -11
46 -7 37 17 -5 12 -12 60 -16 107 -10 109 -18 130 -50 130 -17 0 -25 -5 -25
-17z m32 -95 c5 -45 4 -48 -18 -48 -12 0 -25 3 -27 8 -4 7 32 96 37 90 2 -1 6
-24 8 -50z"/>
</g>
</svg>
